<svg width="26" height="29" viewBox="0 0 26 29" fill="none" xmlns="http://www.w3.org/2000/svg">
<path d="M20.75 9.5C22.8211 9.5 24.5 7.82107 24.5 5.75C24.5 3.67893 22.8211 2 20.75 2C18.6789 2 17 3.67893 17 5.75C17 7.82107 18.6789 9.5 20.75 9.5Z" stroke="white" stroke-width="2.3" stroke-linecap="round" stroke-linejoin="round"/>
<path d="M5.75 18.25C7.82107 18.25 9.5 16.5711 9.5 14.5C9.5 12.4289 7.82107 10.75 5.75 10.75C3.67893 10.75 2 12.4289 2 14.5C2 16.5711 3.67893 18.25 5.75 18.25Z" stroke="white" stroke-width="2.3" stroke-linecap="round" stroke-linejoin="round"/>
<path d="M20.75 27C22.8211 27 24.5 25.3211 24.5 23.25C24.5 21.1789 22.8211 19.5 20.75 19.5C18.6789 19.5 17 21.1789 17 23.25C17 25.3211 18.6789 27 20.75 27Z" stroke="white" stroke-width="2.3" stroke-linecap="round" stroke-linejoin="round"/>
<path d="M8.98633 16.3875L17.5238 21.3625" stroke="white" stroke-width="2.3" stroke-linecap="round" stroke-linejoin="round"/>
<path d="M17.5113 7.63751L8.98633 12.6125" stroke="white" stroke-width="2.3" stroke-linecap="round" stroke-linejoin="round"/>
</svg>
