<svg width="10" height="10" viewBox="0 0 10 10" fill="none" xmlns="http://www.w3.org/2000/svg">
<mask id="path-1-inside-1_810_2114" fill="white">
<path d="M5.5 3.5H4.5V2.5H5.5M5.5 7.5H4.5V4.5H5.5M5 0C4.34339 0 3.69321 0.129329 3.08658 0.380602C2.47995 0.631876 1.92876 1.00017 1.46447 1.46447C0.526784 2.40215 0 3.67392 0 5C0 6.32608 0.526784 7.59785 1.46447 8.53553C1.92876 8.99983 2.47995 9.36812 3.08658 9.6194C3.69321 9.87067 4.34339 10 5 10C6.32608 10 7.59785 9.47322 8.53553 8.53553C9.47322 7.59785 10 6.32608 10 5C10 4.34339 9.87067 3.69321 9.6194 3.08658C9.36812 2.47995 8.99983 1.92876 8.53553 1.46447C8.07124 1.00017 7.52005 0.631876 6.91342 0.380602C6.30679 0.129329 5.65661 0 5 0Z"/>
</mask>
<path d="M4.5 3.5H3.5V4.5H4.5V3.5ZM4.5 2.5V1.5H3.5V2.5H4.5ZM4.5 7.5H3.5V8.5H4.5V7.5ZM4.5 4.5V3.5H3.5V4.5H4.5ZM0 5H-1H0ZM5 10V11V10ZM5.5 2.5H4.5V4.5H5.5V2.5ZM5.5 3.5V2.5H3.5V3.5H5.5ZM4.5 3.5H5.5V1.5H4.5V3.5ZM5.5 6.5H4.5V8.5H5.5V6.5ZM5.5 7.5V4.5H3.5V7.5H5.5ZM4.5 5.5H5.5V3.5H4.5V5.5ZM5 -1C4.21207 -1 3.43185 -0.844805 2.7039 -0.543277L3.46927 1.30448C3.95457 1.10346 4.47471 1 5 1V-1ZM2.7039 -0.543277C1.97595 -0.241749 1.31451 0.200208 0.757359 0.757359L2.17157 2.17157C2.54301 1.80014 2.98396 1.5055 3.46927 1.30448L2.7039 -0.543277ZM0.757359 0.757359C-0.367859 1.88258 -1 3.4087 -1 5H1C1 3.93913 1.42143 2.92172 2.17157 2.17157L0.757359 0.757359ZM-1 5C-1 6.5913 -0.367859 8.11742 0.757359 9.24264L2.17157 7.82843C1.42143 7.07828 1 6.06087 1 5H-1ZM0.757359 9.24264C1.31451 9.79979 1.97595 10.2417 2.7039 10.5433L3.46927 8.69552C2.98396 8.4945 2.54301 8.19986 2.17157 7.82843L0.757359 9.24264ZM2.7039 10.5433C3.43185 10.8448 4.21207 11 5 11V9C4.47471 9 3.95457 8.89654 3.46927 8.69552L2.7039 10.5433ZM5 11C6.5913 11 8.11742 10.3679 9.24264 9.24264L7.82843 7.82843C7.07828 8.57857 6.06087 9 5 9V11ZM9.24264 9.24264C10.3679 8.11742 11 6.5913 11 5H9C9 6.06087 8.57857 7.07828 7.82843 7.82843L9.24264 9.24264ZM11 5C11 4.21207 10.8448 3.43185 10.5433 2.7039L8.69552 3.46927C8.89654 3.95457 9 4.47471 9 5H11ZM10.5433 2.7039C10.2417 1.97595 9.79979 1.31451 9.24264 0.757359L7.82843 2.17157C8.19986 2.54301 8.4945 2.98396 8.69552 3.46927L10.5433 2.7039ZM9.24264 0.757359C8.68549 0.200208 8.02405 -0.241749 7.2961 -0.543277L6.53073 1.30448C7.01604 1.5055 7.45699 1.80014 7.82843 2.17157L9.24264 0.757359ZM7.2961 -0.543277C6.56815 -0.844805 5.78793 -1 5 -1V1C5.52529 1 6.04543 1.10346 6.53073 1.30448L7.2961 -0.543277Z" fill="white" mask="url(#path-1-inside-1_810_2114)"/>
</svg>
