<svg width="9" height="10" viewBox="0 0 9 10" fill="none" xmlns="http://www.w3.org/2000/svg">
<path d="M2.75 3.66705V3.66667L6.19007 6.834L5.99834 7.29578L5.99869 7.29593L7.01791 7.71911L7.01802 7.71916C7.45163 7.89907 7.82634 8.21087 8.09164 8.6173C8.26636 8.88494 8.388 9.18509 8.45073 9.5H0.549268C0.612004 9.18509 0.733643 8.88494 0.908356 8.6173C1.17366 8.21087 1.54837 7.89907 1.98198 7.71916L1.98209 7.71911L3.00131 7.29593C3.00137 7.2959 3.00142 7.29588 3.00148 7.29585C3.00154 7.29583 3.0016 7.2958 3.00166 7.29578C3.21573 7.207 3.39624 7.05507 3.5221 6.86251C3.6479 6.67003 3.71415 6.44475 3.71429 6.21564V6.21533V5.582V5.32613L3.50675 5.17646C3.27515 5.00943 3.08422 4.78543 2.95178 4.52237C2.81931 4.25925 2.74977 3.96572 2.75 3.66705Z" stroke="white"/>
</svg>
