<svg width="21" height="22" viewBox="0 0 21 22" fill="none" xmlns="http://www.w3.org/2000/svg">
<path d="M5.26416 20.1169H6.00196C6.17549 20.1169 6.34606 20.1733 6.4901 20.2822C6.71945 20.4557 6.94653 20.6331 7.18218 20.7956C7.31692 20.8886 7.47111 21.0185 7.62403 21.0674L13.2936 21.0748L17.2539 21.076C18.0197 21.0762 18.6562 20.371 18.6411 19.5092C18.6275 18.7289 18.5134 18.028 17.8197 18.028H17.9077C18.6559 18.028 19.2322 17.3396 19.2246 16.4976C19.2165 15.6047 19.3372 14.874 18.5467 14.874H18.811C19.5641 14.874 19.9651 14.1336 19.9651 13.2768C19.9651 12.4291 20.0635 11.7482 19.3104 11.7482H19.5736C20.3267 11.7482 20.4304 11.0017 20.4304 10.154C20.4304 9.29716 20.0225 8.67314 19.2694 8.67314L12.1449 8.68621C12.3105 8.42984 13.1525 4.90912 13.0904 4.23322C13.0459 3.74874 12.9196 3.26551 12.8149 2.79449C12.6747 2.16422 12.5239 1.53713 12.3732 0.909999C12.2768 0.509166 11.7131 0.227724 11.4004 0.100428C10.925 -0.0930597 10.419 -0.00485672 10.0209 0.346812C9.8091 0.533988 9.48016 0.842177 9.48055 1.1658C9.48187 2.28737 9.47965 3.40894 9.48337 4.5305C9.4834 4.54029 9.48344 4.55006 9.48347 4.55985C9.48366 4.61662 9.48376 4.67416 9.47085 4.72904C9.45702 4.78788 9.42888 4.84096 9.40108 4.89315C8.84317 5.94062 8.28772 6.98976 7.73261 8.03912C7.4892 8.49925 7.24589 8.95945 7.00332 9.42014C6.78332 9.83795 6.58304 10.2936 6.2056 10.5605C5.87223 10.7962 5.56669 11.0139 5.23145 11.2491" fill="white"/>
<path d="M4.11032 22.0001H1.09253C0.489142 22.0001 0 21.4495 0 20.7704V11.3039C0 10.6248 0.489142 10.0742 1.09253 10.0742H4.11032C4.7137 10.0742 5.20284 10.6248 5.20284 11.3039V20.7704C5.20284 21.4495 4.7137 22.0001 4.11032 22.0001Z" fill="white"/>
</svg>
