<svg width="10" height="10" viewBox="0 0 10 10" fill="none" xmlns="http://www.w3.org/2000/svg">
<path d="M6.65 7.35L7.35 6.65L5.5 4.8V2.5H4.5V5.2L6.65 7.35ZM5 10C4.30833 10 3.65833 9.86866 3.05 9.606C2.44167 9.34333 1.9125 8.98716 1.4625 8.5375C1.0125 8.08783 0.656334 7.55866 0.394 6.95C0.131667 6.34133 0.000333966 5.69133 6.32911e-07 5C-0.0003327 4.30867 0.131001 3.65867 0.394 3.05C0.657 2.44133 1.01317 1.91217 1.4625 1.4625C1.91183 1.01283 2.441 0.656667 3.05 0.394C3.659 0.131333 4.309 0 5 0C5.691 0 6.341 0.131333 6.95 0.394C7.559 0.656667 8.08816 1.01283 8.5375 1.4625C8.98683 1.91217 9.34316 2.44133 9.60649 3.05C9.86983 3.65867 10.001 4.30867 9.99999 5C9.99899 5.69133 9.86766 6.34133 9.60599 6.95C9.34433 7.55866 8.98816 8.08783 8.5375 8.5375C8.08683 8.98716 7.55766 9.3435 6.95 9.6065C6.34233 9.8695 5.69233 10.0007 5 10ZM5 9C6.10833 9 7.05216 8.6105 7.8315 7.8315C8.61083 7.0525 9.00033 6.10866 9 5C8.99966 3.89133 8.61016 2.9475 7.8315 2.1685C7.05283 1.3895 6.109 1 5 1C3.891 1 2.94717 1.38967 2.1685 2.169C1.38983 2.94833 1.00033 3.892 1 5C0.999667 6.108 1.38933 7.05183 2.169 7.8315C2.94867 8.61116 3.89233 9.00066 5 9Z" fill="white"/>
</svg>
