<svg width="21" height="22" viewBox="0 0 21 22" fill="none" xmlns="http://www.w3.org/2000/svg">
<path d="M5.26318 1.88305L6.00089 1.88305C6.1744 1.88305 6.34496 1.82674 6.48897 1.7178C6.7183 1.54433 6.94535 1.36694 7.18098 1.20436C7.31571 1.1114 7.46988 0.981533 7.62278 0.932636L13.2917 0.925218L17.2516 0.92402C18.0173 0.923789 18.6537 1.62899 18.6386 2.49075C18.625 3.27108 18.5109 3.972 17.8173 3.972L17.9053 3.972C18.6534 3.972 19.2296 4.66036 19.222 5.50241C19.2139 6.39526 19.3346 7.12604 18.5442 7.12604L18.8084 7.12604C19.5615 7.12604 19.9625 7.86637 19.9625 8.72324C19.9625 9.5709 20.0608 10.2518 19.3078 10.2518L19.571 10.2518C20.324 10.2518 20.4277 10.9983 20.4277 11.846C20.4277 12.7028 20.0198 13.3269 19.2668 13.3269L12.1431 13.3138C12.3088 13.5702 13.1507 17.0909 13.0885 17.7668C13.044 18.2513 12.9177 18.7345 12.813 19.2055C12.6729 19.8358 12.5221 20.4629 12.3714 21.09C12.2751 21.4908 11.7114 21.7723 11.3987 21.8996C10.9234 22.0931 10.4174 22.0049 10.0194 21.6532C9.8076 21.466 9.4787 21.1578 9.47908 20.8342C9.48041 19.7126 9.47819 18.5911 9.48191 17.4695C9.48194 17.4597 9.48197 17.4499 9.48201 17.4401C9.48219 17.3834 9.4823 17.3258 9.46939 17.271C9.45556 17.2121 9.42742 17.159 9.39963 17.1068C8.84178 16.0594 8.2864 15.0102 7.73135 13.9609C7.48797 13.5007 7.24469 13.0406 7.00214 12.5799C6.78217 12.162 6.58191 11.7064 6.20451 11.4395C5.87118 11.2038 5.56568 10.9861 5.23047 10.7509" fill="white"/>
<path d="M4.10985 -9.09584e-05L1.0924 -9.06946e-05C0.489085 -9.06418e-05 -9.94463e-07 0.550454 -9.3509e-07 1.2296L-1.07504e-07 10.6961C-4.81311e-08 11.3752 0.489086 11.9258 1.0924 11.9258L4.10985 11.9258C4.71316 11.9258 5.20225 11.3752 5.20225 10.6961L5.20225 1.2296C5.20225 0.550454 4.71316 -9.10111e-05 4.10985 -9.09584e-05Z" fill="white"/>
</svg>
