<svg width="28" height="28" viewBox="0 0 28 28" fill="none" xmlns="http://www.w3.org/2000/svg">
<path d="M18.9998 8.58064C18.1811 3.53952 16.25 0 14.0028 0C11.7556 0 9.82456 3.53952 9.00585 8.58064H18.9998ZM8.58238 14C8.58238 15.2532 8.65013 16.4556 8.7687 17.6129H19.2313C19.3499 16.4556 19.4176 15.2532 19.4176 14C19.4176 12.7468 19.3499 11.5444 19.2313 10.3871H8.7687C8.65013 11.5444 8.58238 12.7468 8.58238 14ZM26.9159 8.58064C25.3011 4.74758 22.0319 1.78387 17.9948 0.587097C19.3725 2.49516 20.321 5.36855 20.8179 8.58064H26.9159ZM10.0052 0.587097C5.97378 1.78387 2.69893 4.74758 1.08974 8.58064H7.18774C7.67897 5.36855 8.62755 2.49516 10.0052 0.587097ZM27.5201 10.3871H21.0438C21.1623 11.5726 21.2301 12.7863 21.2301 14C21.2301 15.2137 21.1623 16.4274 21.0438 17.6129H27.5144C27.825 16.4556 28 15.2532 28 14C28 12.7468 27.825 11.5444 27.5201 10.3871ZM6.77556 14C6.77556 12.7863 6.84332 11.5726 6.96189 10.3871H0.485582C0.180682 11.5444 0 12.7468 0 14C0 15.2532 0.180682 16.4556 0.485582 17.6129H6.95624C6.84332 16.4274 6.77556 15.2137 6.77556 14ZM9.00585 19.4194C9.82456 24.4605 11.7556 28 14.0028 28C16.25 28 18.1811 24.4605 18.9998 19.4194H9.00585ZM18.0004 27.4129C22.0319 26.2161 25.3067 23.2524 26.9216 19.4194H20.8236C20.3267 22.6315 19.3781 25.5048 18.0004 27.4129ZM1.08974 19.4194C2.70458 23.2524 5.97378 26.2161 10.0109 27.4129C8.63319 25.5048 7.68461 22.6315 7.18774 19.4194H1.08974Z" fill="#172F54"/>
</svg>
