<svg width="30" height="30" viewBox="0 0 30 30" fill="none" xmlns="http://www.w3.org/2000/svg">
<circle cx="15" cy="15" r="15" fill="#324A5F"/>
<path d="M12.4946 10.4569C12.4946 10.8786 12.4946 12.7687 12.4946 12.7687H10.7998V15.596H12.4946V24H15.9741V15.596H18.3094C18.3094 15.596 18.5281 14.241 18.6336 12.757C18.329 12.757 15.9859 12.757 15.9859 12.757C15.9859 12.757 15.9859 11.1129 15.9859 10.8239C15.9859 10.535 16.3647 10.1444 16.7396 10.1444C17.1144 10.1444 17.9033 10.1444 18.6375 10.1444C18.6375 9.75783 18.6375 8.43008 18.6375 7.19995C17.6612 7.19995 16.5482 7.19995 16.0601 7.19995C12.4087 7.20386 12.4946 10.0351 12.4946 10.4569Z" fill="#CCC9DC"/>
</svg>
