<svg width="31" height="27" viewBox="0 0 31 27" fill="none" xmlns="http://www.w3.org/2000/svg">
<path d="M9.6875 15.4286H8.71875C6.57842 15.4286 4.84375 17.1583 4.84375 19.2929V23.1356C4.84375 25.2697 6.57842 27 8.71875 27H9.6875C10.7574 27 11.625 26.1346 11.625 25.0678V17.3608C11.625 16.2934 10.7574 15.4286 9.6875 15.4286ZM22.2812 15.4286H21.3125C20.2426 15.4286 19.375 16.2934 19.375 17.3608V25.0678C19.375 26.1346 20.2426 27 21.3125 27H22.2812C24.4216 27 26.1562 25.2697 26.1562 23.1356V19.2929C26.1562 17.1589 24.4216 15.4286 22.2812 15.4286ZM15.5 0C6.83635 0 0.276699 7.17971 0 15.4286V22.1786C0 22.7113 0.433516 23.1429 0.96875 23.1429H1.9375C2.47273 23.1429 2.90625 22.7113 2.90625 22.1786V15.4286C2.90625 8.51766 8.55709 2.90491 15.5 2.90371C22.4429 2.90491 28.0938 8.51766 28.0938 15.4286V22.1786C28.0938 22.7113 28.5273 23.1429 29.0625 23.1429H30.0312C30.5665 23.1429 31 22.7113 31 22.1786V15.4286C30.7233 7.17971 24.1637 0 15.5 0Z" fill="#324A5F"/>
</svg>
