<svg width="30" height="30" viewBox="0 0 30 30" fill="none" xmlns="http://www.w3.org/2000/svg">
<circle cx="15" cy="15" r="15" fill="#324A5F"/>
<path d="M14.9986 17.4001C16.3241 17.4001 17.3986 16.3256 17.3986 15.0001C17.3986 13.6746 16.3241 12.6001 14.9986 12.6001C13.6731 12.6001 12.5986 13.6746 12.5986 15.0001C12.5986 16.3256 13.6731 17.4001 14.9986 17.4001Z" fill="#CCC9DC"/>
<path d="M18.3 7.5H11.7C10.5861 7.5 9.5178 7.9425 8.73015 8.73015C7.9425 9.5178 7.5 10.5861 7.5 11.7V18.3C7.5 19.4139 7.9425 20.4822 8.73015 21.2698C9.5178 22.0575 10.5861 22.5 11.7 22.5H18.3C19.4139 22.5 20.4822 22.0575 21.2698 21.2698C22.0575 20.4822 22.5 19.4139 22.5 18.3V11.7C22.5 10.5861 22.0575 9.5178 21.2698 8.73015C20.4822 7.9425 19.4139 7.5 18.3 7.5ZM15 18.6C14.288 18.6 13.592 18.3889 12.9999 17.9933C12.4079 17.5977 11.9465 17.0355 11.674 16.3777C11.4016 15.7198 11.3303 14.996 11.4692 14.2977C11.6081 13.5993 11.9509 12.9579 12.4544 12.4544C12.9579 11.9509 13.5993 11.6081 14.2977 11.4692C14.996 11.3303 15.7198 11.4016 16.3777 11.674C17.0355 11.9465 17.5977 12.4079 17.9933 12.9999C18.3889 13.592 18.6 14.288 18.6 15C18.6 15.9548 18.2207 16.8705 17.5456 17.5456C16.8705 18.2207 15.9548 18.6 15 18.6ZM18.9 12C18.722 12 18.548 11.9472 18.4 11.8483C18.252 11.7494 18.1366 11.6089 18.0685 11.4444C18.0004 11.28 17.9826 11.099 18.0173 10.9244C18.052 10.7498 18.1377 10.5895 18.2636 10.4636C18.3895 10.3377 18.5498 10.252 18.7244 10.2173C18.899 10.1826 19.08 10.2004 19.2444 10.2685C19.4089 10.3366 19.5494 10.452 19.6483 10.6C19.7472 10.748 19.8 10.922 19.8 11.1C19.8 11.3387 19.7052 11.5676 19.5364 11.7364C19.3676 11.9052 19.1387 12 18.9 12Z" fill="#CCC9DC"/>
</svg>
