<svg width="30" height="30" viewBox="0 0 30 30" fill="none" xmlns="http://www.w3.org/2000/svg">
<circle cx="15" cy="15" r="15" fill="#324A5F"/>
<path d="M11.5768 22.1086L8.65996 22.0935C8.65728 21.8657 8.72444 21.0008 8.70481 20.7183C8.6825 20.4032 8.67379 19.1653 8.66978 18.8574C8.66598 18.5499 8.69008 17.1783 8.69745 16.7954C8.70726 16.2835 8.68785 15.7717 8.68785 15.2598C8.68785 14.5172 8.68785 13.6599 8.68785 12.9859C8.68785 12.9859 10.7483 12.7214 11.5163 12.9859L11.525 13.4524C11.5239 13.711 11.521 14.741 11.531 14.9927C11.5544 15.5722 11.6024 16.2478 11.5794 16.8324C11.5567 17.4162 11.5703 18.2221 11.5855 18.794C11.6187 20.0527 11.5959 20.922 11.5768 22.1086ZM10.8467 8.53882C9.94543 8.13361 8.71998 8.64905 8.45155 9.64087C8.30295 10.1891 8.49127 10.8797 8.92504 11.1932C11.0901 12.7571 13.0401 9.52484 10.8467 8.53882ZM22.2807 17.725C22.2798 17.2618 22.1843 15.7634 22.159 15.4783C22.1392 15.2538 22.1392 15.2538 22.068 14.785C22.0236 14.4929 21.8165 14.2343 21.6184 14.0192C21.0534 13.4056 20.4389 13.1311 19.674 12.8645C19.049 12.6469 18.5501 12.8138 17.9325 12.8957C17.2251 12.989 16.138 14.2327 16.138 14.2327C16.0952 13.9444 16.138 13.3357 16.0961 12.9838C15.646 12.951 15.266 12.976 14.7845 12.9557C14.3684 12.9379 13.8889 12.964 13.3402 12.9557C13.3402 12.9557 13.3196 14.3418 13.3098 14.7533C13.2998 15.167 13.3141 15.5816 13.3098 15.9955C13.3022 16.7693 13.3545 17.604 13.3859 18.3834C13.437 19.6562 13.3676 20.9954 13.3707 22.1999H13.6445C14.5161 22.1999 15.2964 22.1999 16.1684 22.1999C16.1684 22.1999 16.1762 21.0392 16.1532 20.7098C16.1197 20.2245 16.1226 17.1368 16.1684 16.5589C16.2141 15.9812 16.8264 15.2337 17.8104 15.2362C18.1755 15.237 18.6675 15.296 18.9437 15.563C19.109 15.7228 19.332 16.2782 19.3922 16.8594C19.4527 17.4407 19.4221 20.4347 19.4221 22.1696L22.2503 22.1999C22.0783 21.8284 22.2813 18.2536 22.2807 17.725Z" fill="#CCC9DC"/>
</svg>
