<svg width="28" height="28" viewBox="0 0 28 28" fill="none" xmlns="http://www.w3.org/2000/svg">
<path d="M14 0C11.2311 0 8.52431 0.821086 6.22202 2.35943C3.91973 3.89776 2.12532 6.08427 1.06569 8.64243C0.00606598 11.2006 -0.271181 14.0155 0.269012 16.7313C0.809205 19.447 2.14258 21.9416 4.10051 23.8995C6.05845 25.8574 8.55301 27.1908 11.2687 27.731C13.9845 28.2712 16.7994 27.9939 19.3576 26.9343C21.9157 25.8747 24.1022 24.0803 25.6406 21.778C27.1789 19.4757 28 16.7689 28 14C27.9929 10.2892 26.5156 6.73233 23.8916 4.10836C21.2677 1.4844 17.7108 0.00711573 14 0ZM15.6154 20.4615C15.6154 20.7472 15.5019 21.0211 15.3 21.223C15.098 21.425 14.8241 21.5385 14.5385 21.5385C14.2528 21.5385 13.9789 21.425 13.777 21.223C13.575 21.0211 13.4615 20.7472 13.4615 20.4615V10.0827L11.9 11.1327C11.6608 11.2898 11.369 11.3454 11.0888 11.2873C10.8085 11.2293 10.5629 11.0623 10.4058 10.8231C10.2487 10.5839 10.1931 10.2921 10.2511 10.0118C10.3092 9.73161 10.4762 9.48593 10.7154 9.32885L13.9462 7.175C14.1097 7.07108 14.2974 7.01148 14.491 7.00204C14.6845 6.9926 14.8771 7.03365 15.05 7.12115C15.2222 7.21408 15.3658 7.35215 15.4654 7.52054C15.565 7.68893 15.6169 7.88128 15.6154 8.07692V20.4615Z" fill="#324A5F"/>
</svg>
