<svg width="30" height="30" viewBox="0 0 30 30" fill="none" xmlns="http://www.w3.org/2000/svg">
<circle cx="15" cy="15" r="15" fill="#324A5F"/>
<path d="M23.182 9.79608C22.5804 10.0703 21.933 10.2552 21.2538 10.338C21.9473 9.91223 22.4791 9.23781 22.7299 8.43326C22.0812 8.82804 21.363 9.1145 20.5981 9.26914C19.9859 8.60017 19.1133 8.18188 18.1476 8.18188C16.2938 8.18188 14.7907 9.72319 14.7907 11.6245C14.7907 11.894 14.8203 12.1566 14.8778 12.409C12.0876 12.2652 9.61356 10.8949 7.9577 8.81203C7.66871 9.32024 7.50329 9.91155 7.50329 10.5431C7.50329 11.7373 8.09588 12.7911 8.99672 13.4084C8.44665 13.3903 7.9288 13.2353 7.47605 12.9775C7.47572 12.9918 7.47572 13.0064 7.47572 13.0211C7.47572 14.6887 8.633 16.0798 10.1689 16.3966C9.88727 16.4749 9.59064 16.5172 9.28438 16.5172C9.06781 16.5172 8.85754 16.4957 8.6526 16.4552C9.0801 17.8228 10.3198 18.8184 11.7886 18.846C10.6396 19.7694 9.19237 20.3199 7.61922 20.3199C7.3485 20.3199 7.0811 20.3035 6.81836 20.2715C8.30448 21.2487 10.069 21.8182 11.9647 21.8182C18.14 21.8182 21.5165 16.5727 21.5165 12.0234C21.5165 11.8742 21.5135 11.7253 21.5072 11.5775C22.1629 11.0932 22.7322 10.4865 23.182 9.79608Z" fill="#CCC9DC"/>
</svg>
