<svg width="34" height="31" viewBox="0 0 34 31" fill="none" xmlns="http://www.w3.org/2000/svg">
<path d="M18.3006 2.78403L17 4.12736L15.6994 2.78403C12.1079 -0.925601 6.28508 -0.925601 2.69361 2.78403C-0.897869 6.49367 -0.897869 12.5097 2.69361 16.2214L3.99419 17.5647L17 31L30.0058 17.5626L31.3064 16.2193C34.8979 12.5097 34.8979 6.49367 31.3064 2.78197C27.7149 -0.927667 21.8921 -0.927667 18.3006 2.78403Z" fill="#951B00"/>
<path d="M18.6598 3.13183L18.6599 3.13172C22.0549 -0.376882 27.5521 -0.37691 30.9471 3.12965C34.351 6.64757 34.3509 12.3558 30.9472 15.8715L29.6466 17.2149L29.6465 17.2149L17 30.2811L4.35344 17.2169L4.35341 17.2169L3.05293 15.8737C3.0529 15.8737 3.05286 15.8736 3.05283 15.8736C-0.351029 12.3557 -0.350858 6.6475 3.05283 3.13182C6.44782 -0.374863 11.9452 -0.374863 15.3402 3.13182L15.3402 3.13183L16.6408 4.47515L17 4.84618L17.3592 4.47515L18.6598 3.13183Z" stroke="#BB2E0F" stroke-opacity="0.8"/>
</svg>
